<svg width="29" height="19" viewBox="0 0 29 19" fill="none" xmlns="http://www.w3.org/2000/svg">
<path d="M6.55518 10.8032H1.80664V8.88672H6.55518C7.47477 8.88672 8.2194 8.74023 8.78906 8.44727C9.35872 8.1543 9.77376 7.7474 10.0342 7.22656C10.3027 6.70573 10.437 6.11165 10.437 5.44434C10.437 4.83398 10.3027 4.26025 10.0342 3.72314C9.77376 3.18604 9.35872 2.75472 8.78906 2.4292C8.2194 2.09554 7.47477 1.92871 6.55518 1.92871H2.35596V17.7734H0V0H6.55518C7.89795 0 9.0332 0.231934 9.96094 0.695801C10.8887 1.15967 11.5926 1.80257 12.0728 2.62451C12.5529 3.43831 12.793 4.37012 12.793 5.41992C12.793 6.55924 12.5529 7.53174 12.0728 8.3374C11.5926 9.14307 10.8887 9.75749 9.96094 10.1807C9.0332 10.5957 7.89795 10.8032 6.55518 10.8032ZM21.5269 11.8774L26.2266 0H28.9365L22.6499 14.8071C22.4709 15.2222 22.2715 15.625 22.0518 16.0156C21.832 16.3981 21.5635 16.7399 21.2461 17.041C20.9287 17.3421 20.534 17.5822 20.062 17.7612C19.5981 17.9403 19.0203 18.0298 18.3286 18.0298C18.1333 18.0298 17.9014 18.0176 17.6328 17.9932C17.3643 17.9769 17.1893 17.9565 17.1079 17.9321L17.1812 16.0522C17.2707 16.0685 17.4456 16.0848 17.7061 16.1011C17.9665 16.1092 18.1577 16.1133 18.2798 16.1133C18.7437 16.1133 19.1099 16.0197 19.3784 15.8325C19.647 15.6453 19.8626 15.4093 20.0254 15.1245C20.1963 14.8315 20.3509 14.5345 20.4893 14.2334L21.5269 11.8774ZM17.5352 0L22.479 11.0718L23.0649 13.2568L21.0874 13.4033L14.8984 0H17.5352Z" fill="black" fill-opacity="0.6"/>
</svg>
